<svg xmlns="http://www.w3.org/2000/svg" version="1.1" xmlns:xlink="http://www.w3.org/1999/xlink" xmlns:svgjs="http://svgjs.dev/svgjs" width="2000" height="464" viewBox="0 0 2000 464"><g transform="matrix(1,0,0,1,-1.2121212121212466,1.1938736119556665)"><svg viewBox="0 0 396 92" data-background-color="#162836" preserveAspectRatio="xMidYMid meet" height="464" width="2000" xmlns="http://www.w3.org/2000/svg" xmlns:xlink="http://www.w3.org/1999/xlink"><g id="tight-bounds" transform="matrix(1,0,0,1,0.2400000000000091,-0.23671631961190087)"><svg viewBox="0 0 395.52 92.47343263922377" height="92.47343263922377" width="395.52"><g><svg viewBox="0 0 436.64959999999996 102.08962220000001" height="92.47343263922377" width="395.52"><g><svg viewBox="0 0 436.64959999999996 102.08962220000001" height="102.08962220000001" width="436.64959999999996"><g id="textblocktransform"><svg viewBox="0 0 436.64959999999996 102.08962220000001" height="102.08962220000001" width="436.64959999999996" id="textblock"><g><svg viewBox="0 0 436.64959999999996 69.2504" height="69.2504" width="436.64959999999996"><g><svg><g></g><g></g></svg></g><g><svg><g><svg></svg></g><g></g></svg></g><g id="text-0"><svg viewBox="0 0 436.64959999999996 69.2504" height="69.2504" width="436.64959999999996"><g transform="matrix(1,0,0,1,0,13.225199999999997)"><svg width="179.69999999999996" viewBox="0.55 -38.1 179.69 42.800000000000004" height="42.800000000000004" data-palette-color="#cf7650"><path d="M33-37.45L33-37.7Q34.05-38.1 35.95-38.1 37.85-38.1 39.35-37.85L39.35-37.85Q37.8-26.35 36.93-17.03 36.05-7.7 35.98-7.2 35.9-6.7 35.9-6.3L35.9-6.3Q35.95-5 37.15-5L37.15-5Q40.15-5 45.5-11.9L45.5-11.9Q46.45-9.25 46.6-8.35L46.6-8.35Q44.2-4.55 40.83-2.13 37.45 0.3 34.45 0.3 31.45 0.3 30.3-1.25 29.15-2.8 29.15-4.7L29.15-4.7Q29.15-5.15 29.28-6.45 29.4-7.75 31.25-22.65L31.25-22.65 23.05-3.7 18.8-3.7 16.35-22.35 12.85-6.85Q12-3.15 10.08-1.4 8.15 0.35 5.85 0.35 3.55 0.35 2.1-1L2.1-1Q0.55-2.45 0.55-5.1L0.55-5.1Q0.55-10.4 8.75-14.15L8.75-14.15Q13.2-35.5 13.55-37.8L13.55-37.8Q14.75-38.1 16.78-38.1 18.8-38.1 19.55-38L19.55-38 19.9-38 23-14.75 33-37.45ZM4.1-5.95L4.1-5.95Q4.1-4.35 5.35-4.35L5.35-4.35Q6.2-4.35 6.75-5.7L6.75-5.7Q7.45-7.35 7.9-10.05L7.9-10.05Q4.1-7.9 4.1-5.95ZM64.4 0.25L64.4 0.25Q59.8 0.25 58.3-2.95L58.3-2.95Q55.7 0.3 51.62 0.3 47.55 0.3 44.77-2.45 42-5.2 42-9.7L42-9.7Q42-16.25 45.85-20.15 49.7-24.05 55.6-24.05L55.6-24.05Q55.75-24.05 55.9-24.05L55.9-24.05Q58.4-24.05 60.5-23.2L60.5-23.2Q61.85-24.05 63.77-24.05 65.7-24.05 66.55-23.55L66.55-23.55Q66.1-19.85 65.6-16.28 65.1-12.7 64.9-11.2L64.9-11.2Q64.45-7.8 64.45-6.3L64.45-6.3Q64.45-4.3 66.05-4.3L66.05-4.3Q67.3-4.3 68.7-5.98 70.1-7.65 71.15-11.25L71.15-11.25Q72.6-9.95 73.15-8.35L73.15-8.35Q71.7-3.6 69.25-1.68 66.8 0.25 64.4 0.25ZM56.35-20.15L56.35-20.15Q53.15-20.15 51.27-17.73 49.4-15.3 49.05-10.5L49.05-10.5Q49-10.05 49-9.65L49-9.65Q49-7.2 50.17-5.75 51.35-4.3 53.2-4.3L53.2-4.3Q56.35-4.3 57.95-8.75L57.95-8.75 59.15-19.55Q57.7-20.15 56.35-20.15ZM78.85-11.2Q81.95-11.85 83.47-13.7 85-15.55 85-17.28 85-19 84.07-19.63 83.15-20.25 82.05-20.25L82.05-20.25Q79.7-20.25 77.92-17.63 76.15-15 76.15-11.38 76.15-7.75 77.87-5.98 79.6-4.2 82.15-4.2L82.15-4.2Q85.9-4.2 89.35-6.8 92.8-9.4 94.95-13.6L94.95-13.6Q96.05-12.55 96.95-11L96.95-11Q95.3-7.25 91.1-3.65L91.1-3.65Q89-1.9 86.12-0.8 83.25 0.3 80.2 0.3L80.2 0.3Q75.2 0.3 72.3-2.75L72.3-2.75Q69.2-6.05 69.2-11.2 69.2-16.35 73.07-20.2 76.95-24.05 82.35-24.05L82.35-24.05Q86.2-24.05 88.6-22.38 91-20.7 91.05-17.85L91.05-17.85Q91.05-14 87.97-11.6 84.9-9.2 79.55-8.25L79.55-8.25 78.85-11.2ZM113.69-15.3L113.69-15.3Q117.64-12.4 117.64-8.45 117.64-4.5 114.54-2.1 111.44 0.3 106.74 0.3L106.74 0.3Q103.69 0.3 101.67-1.23 99.64-2.75 99.64-5 99.64-7.25 101.14-8.58 102.64-9.9 104.89-10.2L104.89-10.2Q103.84-8.7 103.84-7.33 103.84-5.95 104.79-5.1L104.79-5.1Q105.74-4.25 107.19-4.25 108.64-4.25 109.59-5.33 110.54-6.4 110.54-7.8L110.54-7.8Q110.54-10.1 108.39-11.9L108.39-11.9Q107.09-12.95 105.59-13.88 104.09-14.8 103.99-14.85L103.99-14.85Q103.79-15 103.59-15.1L103.59-15.1Q102.69-14.05 100.99-12.23 99.29-10.4 98.29-9.3L98.29-9.3Q95.49-6.25 95.14-4.2L95.14-4.2Q95.04-3.8 95.04-2.68 95.04-1.55 95.72-0.35 96.39 0.85 97.34 1.45 98.29 2.05 99.22 2.43 100.14 2.8 100.82 2.95 101.49 3.1 101.49 3.15L101.49 3.15Q101.49 3.5 100.39 3.95L100.39 3.95Q98.34 4.7 96.12 4.7 93.89 4.7 91.79 3.1L91.79 3.1Q88.94 0.9 88.94-2.75L88.94-2.75Q88.94-5 90.09-7.2L90.09-7.2Q92.14-11.1 99.69-17.9L99.69-17.9Q97.84-19.75 97.84-21.85 97.84-23.95 99.42-25.4 100.99-26.85 103.14-26.85L103.14-26.85Q105.09-26.85 106.54-25.3L106.54-25.3Q107.49-24.25 107.49-22.65 107.49-21.05 106.44-19.05L106.44-19.05Q111.79-16.65 113.69-15.3ZM102.84-20.95L102.84-20.95Q104.04-22.2 104.04-22.75L104.04-22.75Q104.04-24 102.94-24.1L102.94-24.1Q101.69-24.1 101.69-22.7L101.69-22.7Q101.69-21.85 102.84-20.95ZM129.89-34.8L129.89-34.8Q129.89-34.5 128.54-24.05L128.54-24.05 135.89-24.05 135.89-20.2 128.04-20.2 127.89-18.95Q133.74-14.05 133.74-8.25L133.74-8.25Q133.74-3.7 131.42-1.7 129.09 0.3 125.84 0.3 122.59 0.3 121.09-1.43 119.59-3.15 119.59-5.6L119.59-5.6Q119.59-6.15 119.69-6.8L119.69-6.8 121.24-20.1 121.04-20.2 116.99-20.2Q116.94-20.7 116.94-21.83 116.94-22.95 117.39-24.05L117.39-24.05 121.69-24.05 123.29-37.65Q124.34-38.05 126.09-38.05L126.09-38.05Q129.89-38.05 129.89-34.8ZM130.39-8.3L130.39-8.3Q130.39-11.75 127.39-15.1L127.39-15.1Q126.49-7.65 126.49-6.5L126.49-6.5Q126.49-4.25 127.94-4.25L127.94-4.25Q128.99-4.25 129.69-5.23 130.39-6.2 130.39-8.3ZM150.54-17.5L150.54-17.5Q150.54-19.7 148.51-19.7 146.49-19.7 145.29-17.1L145.29-17.1Q150.69-12.85 150.69-7.55L150.69-7.55Q150.69-3.7 148.54-1.7 146.39 0.3 143.14 0.3 139.89 0.3 138.39-1.73 136.89-3.75 136.89-6.85L136.89-6.85Q136.89-7.8 136.94-8.25L136.94-8.25 138.69-23.5Q140.49-24.05 142.34-24.05L142.34-24.05Q145.39-24.05 145.39-21.8L145.39-21.8 145.39-21.7Q147.39-24.05 150.49-24.05L150.49-24.05Q152.74-24.05 153.99-23.03 155.24-22 155.24-20.3 155.24-18.6 153.96-17.53 152.69-16.45 150.64-16.45L150.64-16.45Q150.54-16.45 150.44-16.45L150.44-16.45Q150.54-17 150.54-17.5ZM147.44-7.8Q147.44-10.7 144.44-13.6L144.44-13.6Q143.54-6.4 143.54-6.35L143.54-6.35Q143.54-4.25 145.24-4.25L145.24-4.25Q147.44-4.25 147.44-7.8L147.44-7.8ZM169.49-24.05L169.49-24.05Q174.09-24.05 177.16-21.1 180.24-18.15 180.24-13.9L180.24-13.9Q180.24-7.45 176.46-3.58 172.69 0.3 167.34 0.3 161.99 0.3 158.86-2.75 155.74-5.8 155.74-10.3L155.74-10.3Q155.74-16.6 159.59-20.3L159.59-20.3Q163.49-24.05 169.49-24.05ZM168.51-20Q166.14-20 164.54-17.3 162.94-14.6 162.79-10.5L162.79-10.5Q162.79-7.6 163.96-5.7 165.14-3.8 167.54-3.8 169.94-3.8 171.56-6.45 173.19-9.1 173.19-12.5 173.19-15.9 172.04-17.9L172.04-17.9Q170.89-20 168.51-20Z" opacity="1" transform="matrix(1,0,0,1,0,0)" fill="#cf7650" class="undefined-yy-0"></path></svg></g><g><svg xmlns="http://www.w3.org/2000/svg" xmlns:xlink="http://www.w3.org/1999/xlink" version="1.1" x="196.04959999999997" y="0" viewBox="2 2 48 48" enable-background="new 0 0 52 52" xml:space="preserve" height="69.2504" width="69.2504" class="icon-cg-0" data-fill-palette-color="accent" id="cg-0"><g fill="#d5a187" data-fill-palette-color="accent"><polygon points="30,2 30,30 27.0005493,30 27.0005493,50 40.0005493,50 40.0005493,30 37,30 37,2  " fill="#d5a187" data-fill-palette-color="accent"></polygon><polygon points="25.0005493,50 25.0005493,30 22,30 22,2 15,2 15,30 12.0005493,30 12.0005493,50  " fill="#d5a187" data-fill-palette-color="accent"></polygon><polygon points="45,2 45,30 42.0005493,30 42.0005493,50 50,50 50,2  " fill="#d5a187" data-fill-palette-color="accent"></polygon><polygon points="10.0005493,30 7,30 7,2 2,2 2,50 10.0005493,50  " fill="#d5a187" data-fill-palette-color="accent"></polygon></g></svg></g><g transform="matrix(1,0,0,1,281.64959999999996,13.225199999999994)"><svg width="155" viewBox="0.55 -38.1 154.98999999999998 38.45" height="38.45" data-palette-color="#cf7650"><path d="M33-37.45L33-37.7Q34.05-38.1 35.95-38.1 37.85-38.1 39.35-37.85L39.35-37.85Q37.8-26.35 36.93-17.03 36.05-7.7 35.98-7.2 35.9-6.7 35.9-6.3L35.9-6.3Q35.95-5 37.15-5L37.15-5Q40.15-5 45.5-11.9L45.5-11.9Q46.45-9.25 46.6-8.35L46.6-8.35Q44.2-4.55 40.83-2.13 37.45 0.3 34.45 0.3 31.45 0.3 30.3-1.25 29.15-2.8 29.15-4.7L29.15-4.7Q29.15-5.15 29.28-6.45 29.4-7.75 31.25-22.65L31.25-22.65 23.05-3.7 18.8-3.7 16.35-22.35 12.85-6.85Q12-3.15 10.08-1.4 8.15 0.35 5.85 0.35 3.55 0.35 2.1-1L2.1-1Q0.55-2.45 0.55-5.1L0.55-5.1Q0.55-10.4 8.75-14.15L8.75-14.15Q13.2-35.5 13.55-37.8L13.55-37.8Q14.75-38.1 16.78-38.1 18.8-38.1 19.55-38L19.55-38 19.9-38 23-14.75 33-37.45ZM4.1-5.95L4.1-5.95Q4.1-4.35 5.35-4.35L5.35-4.35Q6.2-4.35 6.75-5.7L6.75-5.7Q7.45-7.35 7.9-10.05L7.9-10.05Q4.1-7.9 4.1-5.95ZM64.4 0.25L64.4 0.25Q59.8 0.25 58.3-2.95L58.3-2.95Q55.7 0.3 51.62 0.3 47.55 0.3 44.77-2.45 42-5.2 42-9.7L42-9.7Q42-16.25 45.85-20.15 49.7-24.05 55.6-24.05L55.6-24.05Q55.75-24.05 55.9-24.05L55.9-24.05Q58.4-24.05 60.5-23.2L60.5-23.2Q61.85-24.05 63.77-24.05 65.7-24.05 66.55-23.55L66.55-23.55Q66.1-19.85 65.6-16.28 65.1-12.7 64.9-11.2L64.9-11.2Q64.45-7.8 64.45-6.3L64.45-6.3Q64.45-4.3 66.05-4.3L66.05-4.3Q67.3-4.3 68.7-5.98 70.1-7.65 71.15-11.25L71.15-11.25Q72.6-9.95 73.15-8.35L73.15-8.35Q71.7-3.6 69.25-1.68 66.8 0.25 64.4 0.25ZM56.35-20.15L56.35-20.15Q53.15-20.15 51.27-17.73 49.4-15.3 49.05-10.5L49.05-10.5Q49-10.05 49-9.65L49-9.65Q49-7.2 50.17-5.75 51.35-4.3 53.2-4.3L53.2-4.3Q56.35-4.3 57.95-8.75L57.95-8.75 59.15-19.55Q57.7-20.15 56.35-20.15ZM84.3-17.5L84.3-17.5Q84.3-19.7 82.27-19.7 80.25-19.7 79.05-17.1L79.05-17.1Q84.45-12.85 84.45-7.55L84.45-7.55Q84.45-3.7 82.3-1.7 80.15 0.3 76.9 0.3 73.65 0.3 72.15-1.73 70.65-3.75 70.65-6.85L70.65-6.85Q70.65-7.8 70.7-8.25L70.7-8.25 72.45-23.5Q74.25-24.05 76.1-24.05L76.1-24.05Q79.15-24.05 79.15-21.8L79.15-21.8 79.15-21.7Q81.15-24.05 84.25-24.05L84.25-24.05Q86.5-24.05 87.75-23.03 89-22 89-20.3 89-18.6 87.72-17.53 86.45-16.45 84.4-16.45L84.4-16.45Q84.3-16.45 84.2-16.45L84.2-16.45Q84.3-17 84.3-17.5ZM81.2-7.8Q81.2-10.7 78.2-13.6L78.2-13.6Q77.3-6.4 77.3-6.35L77.3-6.35Q77.3-4.25 79-4.25L79-4.25Q81.2-4.25 81.2-7.8L81.2-7.8ZM112.79-18L112.79-18Q112.79-12.8 106.59-10.05L106.59-10.05Q106.74-9.15 107.04-7.9L107.04-7.9Q107.94-4.2 110.04-4.1L110.04-4.1Q110.19-4.1 110.34-4.1L110.34-4.1Q114.34-4.1 116.29-11.15L116.29-11.15Q117.34-10.2 118.29-8.3L118.29-8.3Q117.59-5.6 116.32-3.75 115.04-1.9 113.54-1.1L113.54-1.1Q110.89 0.3 108.54 0.3L108.54 0.3Q103.04 0.3 100.84-5.85L100.84-5.85Q99.99-8.3 99.69-10.85L99.69-10.85Q102.54-11.55 104.19-13.18 105.84-14.8 105.84-16.65L105.84-16.65Q105.84-19.85 102.64-19.85L102.64-19.85Q100.89-19.85 99.64-18.53 98.39-17.2 97.99-15.35L97.99-15.35Q97.69-12.8 97.02-7.33 96.34-1.85 96.14 0L96.14 0 89.49 0Q93.09-30.65 93.84-37.65L93.84-37.65Q94.89-38.05 96.69-38.05L96.69-38.05Q100.59-38.05 100.59-35.75L100.59-35.75 100.59-35.45Q99.59-26.4 98.74-21.6L98.74-21.6Q101.49-24.15 105.64-24.15L105.64-24.15Q108.74-24.15 110.77-22.55 112.79-20.95 112.79-18ZM124.24-11.2Q127.34-11.85 128.87-13.7 130.39-15.55 130.39-17.28 130.39-19 129.47-19.63 128.54-20.25 127.44-20.25L127.44-20.25Q125.09-20.25 123.32-17.63 121.54-15 121.54-11.38 121.54-7.75 123.27-5.98 124.99-4.2 127.54-4.2L127.54-4.2Q131.29-4.2 134.74-6.8 138.19-9.4 140.34-13.6L140.34-13.6Q141.44-12.55 142.34-11L142.34-11Q140.69-7.25 136.49-3.65L136.49-3.65Q134.39-1.9 131.52-0.8 128.64 0.3 125.59 0.3L125.59 0.3Q120.59 0.3 117.69-2.75L117.69-2.75Q114.59-6.05 114.59-11.2 114.59-16.35 118.47-20.2 122.34-24.05 127.74-24.05L127.74-24.05Q131.59-24.05 133.99-22.38 136.39-20.7 136.44-17.85L136.44-17.85Q136.44-14 133.37-11.6 130.29-9.2 124.94-8.25L124.94-8.25 124.24-11.2ZM149.54-34.8L149.54-34.8Q149.54-34.5 148.19-24.05L148.19-24.05 155.54-24.05 155.54-20.2 147.69-20.2 147.54-18.95Q153.39-14.05 153.39-8.25L153.39-8.25Q153.39-3.7 151.06-1.7 148.74 0.3 145.49 0.3 142.24 0.3 140.74-1.43 139.24-3.15 139.24-5.6L139.24-5.6Q139.24-6.15 139.34-6.8L139.34-6.8 140.89-20.1 140.69-20.2 136.64-20.2Q136.59-20.7 136.59-21.83 136.59-22.95 137.04-24.05L137.04-24.05 141.34-24.05 142.94-37.65Q143.99-38.05 145.74-38.05L145.74-38.05Q149.54-38.05 149.54-34.8ZM150.04-8.3L150.04-8.3Q150.04-11.75 147.04-15.1L147.04-15.1Q146.14-7.65 146.14-6.5L146.14-6.5Q146.14-4.25 147.59-4.25L147.59-4.25Q148.64-4.25 149.34-5.23 150.04-6.2 150.04-8.3Z" opacity="1" transform="matrix(1,0,0,1,0,0)" fill="#cf7650" class="undefined-yy-1"></path></svg></g></svg></g></svg></g><g transform="matrix(1,0,0,1,108.87396961414788,78.3275222)"><svg viewBox="0 0 218.9016607717042 23.762100000000004" height="23.762100000000004" width="218.9016607717042"><g transform="matrix(1,0,0,1,0,0)"><svg width="218.9016607717042" viewBox="3.65 -36.5 429.71000000000004 46.65" height="23.762100000000004" data-palette-color="#cf7650"><path d="M12.2 0.6L12.2 0.6Q9.8 0.6 7.88-0.33 5.95-1.25 4.8-3.23 3.65-5.2 3.65-8.3L3.65-8.3 3.65-25.5 8.25-25.5 8.25-7.5Q8.25-6.15 8.8-5.2 9.35-4.25 10.25-3.8 11.15-3.35 12.15-3.35L12.15-3.35Q13.15-3.35 14.05-3.83 14.95-4.3 15.53-5.23 16.1-6.15 16.1-7.5L16.1-7.5 16.1-17.4Q16.1-20.35 17.2-22.28 18.3-24.2 20.2-25.15 22.1-26.1 24.5-26.1L24.5-26.1Q26.9-26.1 28.8-25.15 30.7-24.2 31.8-22.28 32.9-20.35 32.9-17.4L32.9-17.4 32.9-7.5Q32.9-6.15 33.45-5.23 34-4.3 34.9-3.83 35.8-3.35 36.85-3.35L36.85-3.35Q37.9-3.35 38.75-3.83 39.6-4.3 40.15-5.23 40.7-6.15 40.7-7.5L40.7-7.5 40.7-25.5 45.35-25.5 45.35-8.3Q45.35-5.2 44.2-3.23 43.05-1.25 41.13-0.33 39.2 0.6 36.85 0.6L36.85 0.6Q34.55 0.6 32.6-0.33 30.65-1.25 29.48-3.23 28.3-5.2 28.3-8.3L28.3-8.3 28.3-18.1Q28.3-19.5 27.75-20.4 27.2-21.3 26.35-21.73 25.5-22.15 24.5-22.15L24.5-22.15Q23.5-22.15 22.63-21.73 21.75-21.3 21.23-20.4 20.7-19.5 20.7-18.1L20.7-18.1 20.7-8.3Q20.7-5.2 19.53-3.23 18.35-1.25 16.43-0.33 14.5 0.6 12.2 0.6ZM72.15 0L65.6 0Q61.4 0 58.15-1.58 54.9-3.15 53.07-6.03 51.25-8.9 51.25-12.75L51.25-12.75Q51.25-16.55 52.8-19.58 54.35-22.6 57.1-24.35 59.85-26.1 63.5-26.1L63.5-26.1Q67.45-26.1 70.07-24.4 72.7-22.7 74-19.83 75.3-16.95 75.3-13.4L75.3-13.4Q75.3-12.85 75.27-12.25 75.25-11.65 75.15-11.2L75.15-11.2 56.15-11.2Q56.4-8.85 57.7-7.23 59-5.6 61.02-4.78 63.05-3.95 65.5-3.95L65.5-3.95 72.15-3.95 72.15 0ZM56.1-14.45L56.1-14.45 70.65-14.45Q70.65-15.4 70.45-16.48 70.25-17.55 69.75-18.57 69.25-19.6 68.42-20.43 67.6-21.25 66.37-21.75 65.15-22.25 63.5-22.25L63.5-22.25Q61.75-22.25 60.42-21.58 59.1-20.9 58.15-19.78 57.2-18.65 56.7-17.25 56.2-15.85 56.1-14.45ZM106.79 0L94.04 0 94.04-3.95 106.24-3.95Q107.44-3.95 108.32-4.48 109.19-5 109.64-5.85 110.09-6.7 110.09-7.65L110.09-7.65Q110.09-8.55 109.69-9.33 109.29-10.1 108.47-10.58 107.64-11.05 106.49-11.05L106.49-11.05 101.34-11.05Q98.89-11.05 97.07-11.88 95.24-12.7 94.22-14.3 93.19-15.9 93.19-18.2L93.19-18.2Q93.19-20.15 94.14-21.8 95.09-23.45 96.79-24.48 98.49-25.5 100.69-25.5L100.69-25.5 112.44-25.5 112.44-21.55 101.14-21.55Q99.59-21.55 98.69-20.6 97.79-19.65 97.79-18.35L97.79-18.35Q97.79-17.1 98.72-16.18 99.64-15.25 101.34-15.25L101.34-15.25 106.24-15.25Q108.99-15.25 110.87-14.38 112.74-13.5 113.72-11.85 114.69-10.2 114.69-7.8L114.69-7.8Q114.69-5.75 113.69-3.98 112.69-2.2 110.92-1.1 109.14 0 106.79 0L106.79 0ZM140.24 0L133.69 0Q129.49 0 126.24-1.58 122.99-3.15 121.17-6.03 119.34-8.9 119.34-12.75L119.34-12.75Q119.34-16.55 120.89-19.58 122.44-22.6 125.19-24.35 127.94-26.1 131.59-26.1L131.59-26.1Q135.54-26.1 138.17-24.4 140.79-22.7 142.09-19.83 143.39-16.95 143.39-13.4L143.39-13.4Q143.39-12.85 143.37-12.25 143.34-11.65 143.24-11.2L143.24-11.2 124.24-11.2Q124.49-8.85 125.79-7.23 127.09-5.6 129.12-4.78 131.14-3.95 133.59-3.95L133.59-3.95 140.24-3.95 140.24 0ZM124.19-14.45L124.19-14.45 138.74-14.45Q138.74-15.4 138.54-16.48 138.34-17.55 137.84-18.57 137.34-19.6 136.52-20.43 135.69-21.25 134.47-21.75 133.24-22.25 131.59-22.25L131.59-22.25Q129.84-22.25 128.52-21.58 127.19-20.9 126.24-19.78 125.29-18.65 124.79-17.25 124.29-15.85 124.19-14.45ZM153.84 0L149.24 0 149.24-36.5 153.84-36.5 153.84 0ZM165.74 0L161.14 0 161.14-36.5 165.74-36.5 165.74 0ZM200.53 10.15L195.93 10.15 195.93 0.4Q193.13 0 190.96-1.48 188.78-2.95 187.53-5.33 186.28-7.7 186.28-10.75L186.28-10.75 186.28-25.5 190.93-25.5 190.93-10.8Q190.93-8.5 191.93-6.83 192.93-5.15 194.61-4.25 196.28-3.35 198.18-3.35L198.18-3.35Q200.13-3.35 201.81-4.25 203.48-5.15 204.51-6.83 205.53-8.5 205.53-10.8L205.53-10.8 205.53-25.5 210.13-25.5 210.13-10.75Q210.13-7.7 208.91-5.35 207.68-3 205.51-1.53 203.33-0.05 200.53 0.4L200.53 0.4 200.53 10.15ZM229.43 0.6L229.43 0.6Q225.53 0.6 222.53-1.18 219.53-2.95 217.78-5.98 216.03-9 216.03-12.75L216.03-12.75Q216.03-16.5 217.78-19.53 219.53-22.55 222.53-24.33 225.53-26.1 229.43-26.1L229.43-26.1Q233.33-26.1 236.35-24.33 239.38-22.55 241.1-19.53 242.83-16.5 242.83-12.75L242.83-12.75Q242.83-9 241.1-5.98 239.38-2.95 236.35-1.18 233.33 0.6 229.43 0.6ZM229.43-3.35L229.43-3.35Q232.08-3.35 234.03-4.6 235.98-5.85 237.08-7.98 238.18-10.1 238.18-12.75L238.18-12.75Q238.18-15.4 237.08-17.53 235.98-19.65 234.03-20.9 232.08-22.15 229.43-22.15L229.43-22.15Q226.83-22.15 224.85-20.9 222.88-19.65 221.78-17.53 220.68-15.4 220.68-12.75L220.68-12.75Q220.68-10.1 221.78-7.98 222.88-5.85 224.85-4.6 226.83-3.35 229.43-3.35ZM260.68 0.6L260.68 0.6Q257.23 0.6 254.5-0.83 251.78-2.25 250.25-4.8 248.73-7.35 248.73-10.75L248.73-10.75 248.73-25.5 253.38-25.5 253.38-10.8Q253.38-8.5 254.38-6.83 255.38-5.15 257.05-4.25 258.73-3.35 260.63-3.35L260.63-3.35Q262.58-3.35 264.25-4.25 265.93-5.15 266.95-6.83 267.98-8.5 267.98-10.8L267.98-10.8 267.98-25.5 272.63-25.5 272.63-10.75Q272.63-7.35 271.08-4.8 269.53-2.25 266.83-0.83 264.13 0.6 260.68 0.6ZM308.52 0L305.52 0Q301.57 0 298.47-1.7 295.37-3.4 293.57-6.28 291.77-9.15 291.77-12.75L291.77-12.75Q291.77-16.35 293.57-19.23 295.37-22.1 298.47-23.8 301.57-25.5 305.52-25.5L305.52-25.5 308.52-25.5 308.52-21.55 305.37-21.55Q302.82-21.55 300.8-20.38 298.77-19.2 297.6-17.2 296.42-15.2 296.42-12.75L296.42-12.75Q296.42-10.3 297.6-8.3 298.77-6.3 300.8-5.13 302.82-3.95 305.37-3.95L305.37-3.95 308.52-3.95 308.52 0ZM318.22 0L313.62 0 313.62-18.25Q313.62-21.65 315.54-23.58 317.47-25.5 320.87-25.5L320.87-25.5 326.12-25.5 326.12-21.55 321.72-21.55Q320.07-21.55 319.14-20.6 318.22-19.65 318.22-17.95L318.22-17.95 318.22 0ZM349.87 0L343.32 0Q339.12 0 335.87-1.58 332.62-3.15 330.79-6.03 328.97-8.9 328.97-12.75L328.97-12.75Q328.97-16.55 330.52-19.58 332.07-22.6 334.82-24.35 337.57-26.1 341.22-26.1L341.22-26.1Q345.17-26.1 347.79-24.4 350.42-22.7 351.72-19.83 353.02-16.95 353.02-13.4L353.02-13.4Q353.02-12.85 352.99-12.25 352.97-11.65 352.87-11.2L352.87-11.2 333.87-11.2Q334.12-8.85 335.42-7.23 336.72-5.6 338.74-4.78 340.77-3.95 343.22-3.95L343.22-3.95 349.87-3.95 349.87 0ZM333.82-14.45L333.82-14.45 348.37-14.45Q348.37-15.4 348.17-16.48 347.97-17.55 347.47-18.57 346.97-19.6 346.14-20.43 345.32-21.25 344.09-21.75 342.87-22.25 341.22-22.25L341.22-22.25Q339.47-22.25 338.14-21.58 336.82-20.9 335.87-19.78 334.92-18.65 334.42-17.25 333.92-15.85 333.82-14.45ZM369.46 0.6L369.46 0.6Q365.76 0.6 363.06-1.18 360.36-2.95 358.91-6 357.46-9.05 357.46-12.75L357.46-12.75Q357.46-16.5 359.06-19.53 360.66-22.55 363.66-24.33 366.66-26.1 370.86-26.1L370.86-26.1Q374.91-26.1 377.81-24.35 380.71-22.6 382.29-19.6 383.86-16.6 383.86-12.9L383.86-12.9 383.86 0 379.21 0 379.21-5.2 379.11-5.2Q378.36-3.75 377.09-2.43 375.81-1.1 373.91-0.25 372.01 0.6 369.46 0.6ZM370.66-3.35L370.66-3.35Q373.16-3.35 375.09-4.58 377.01-5.8 378.09-7.98 379.16-10.15 379.16-12.85L379.16-12.85Q379.16-15.5 378.14-17.6 377.11-19.7 375.21-20.93 373.31-22.15 370.76-22.15L370.76-22.15Q368.06-22.15 366.14-20.9 364.21-19.65 363.19-17.53 362.16-15.4 362.16-12.7L362.16-12.7Q362.16-10.1 363.16-7.98 364.16-5.85 366.06-4.6 367.96-3.35 370.66-3.35ZM405.86 0L399.86 0Q396.46 0 394.54-1.95 392.61-3.9 392.61-7.25L392.61-7.25 392.61-31.9 397.21-31.9 397.21-7.55Q397.21-5.9 398.14-4.93 399.06-3.95 400.71-3.95L400.71-3.95 405.86-3.95 405.86 0ZM405.96-21.55L388.21-21.55 388.21-25.5 405.96-25.5 405.96-21.55ZM430.21 0L423.66 0Q419.46 0 416.21-1.58 412.96-3.15 411.13-6.03 409.31-8.9 409.31-12.75L409.31-12.75Q409.31-16.55 410.86-19.58 412.41-22.6 415.16-24.35 417.91-26.1 421.56-26.1L421.56-26.1Q425.51-26.1 428.13-24.4 430.76-22.7 432.06-19.83 433.36-16.95 433.36-13.4L433.36-13.4Q433.36-12.85 433.33-12.25 433.31-11.65 433.21-11.2L433.21-11.2 414.21-11.2Q414.46-8.85 415.76-7.23 417.06-5.6 419.08-4.78 421.11-3.95 423.56-3.95L423.56-3.95 430.21-3.95 430.21 0ZM414.16-14.45L414.16-14.45 428.71-14.45Q428.71-15.4 428.51-16.48 428.31-17.55 427.81-18.57 427.31-19.6 426.48-20.43 425.66-21.25 424.43-21.75 423.21-22.25 421.56-22.25L421.56-22.25Q419.81-22.25 418.48-21.58 417.16-20.9 416.21-19.78 415.26-18.65 414.76-17.25 414.26-15.85 414.16-14.45Z" opacity="1" transform="matrix(1,0,0,1,0,0)" fill="#cf7650" class="slogan-text-1" data-fill-palette-color="secondary" id="text-1"></path></svg></g></svg></g></svg></g></svg></g><g></g></svg></g><defs></defs></svg><rect width="395.52" height="92.47343263922377" fill="none" stroke="none" visibility="hidden"></rect></g></svg></g></svg>